# xmcd CD database file
# Copyright (C) 1993-1998 Ti Kan
#
# Track frame offsets:
#  150
#  17937
#  41770
#  60225
#  79522
#  97910
#  117892
#  138837
#  162300
#
# Disc length: 2477 seconds
#
# Revision: 1
# Processed by: cddbd v1.4b41PL1 Copyright (c) Steve Scherf et al.
# Submitted via: CDWizzard Release:4.35
#
DISCID=6509ab09
DTITLE=Melvin Williams - Back To The Cross
DYEAR=1900
DGENRE=
TTITLE0=I Feel Better Now
TTITLE1=Back To The Cross
TTITLE2=Peace In My Heart
TTITLE3=You Blessed Me Still
TTITLE4=Whatch Them Dogs
TTITLE5=Fear No Evil
TTITLE6=Say No
TTITLE7=Glad I Met You
TTITLE8=Oh How I Need You
EXTD=
EXTT0=
EXTT1=
EXTT2=
EXTT3=
EXTT4=
EXTT5=
EXTT6=
EXTT7=
EXTT8=
PLAYORDER=
